<svg id="Logo" xmlns="http://www.w3.org/2000/svg" viewBox="0 0 295.08 320.49"><defs><style>.cls-1{fill:#fff;}.cls-2,.cls-4{fill:#f1c81e;}.cls-3{fill:none;stroke:#361f15;}.cls-3,.cls-4{stroke-miterlimit:10;stroke-width:8px;}.cls-4{stroke:#361f14;}</style></defs><polygon id="fill_isi" data-name="fill isi" class="cls-1" points="96.31 182.33 74.33 125.21 57.57 44.75 42.24 39.82 19.72 73.18 1.84 132.32 8.67 187.49 36.62 251.34 96.31 298.27 129.46 307.22 102.41 276.9 89.84 246.31 86.49 206.92 96.31 182.33"/><polyline id="fill_kulit" data-name="fill kulit" class="cls-2" points="97.13 274.49 84.8 231.96 95.29 172.14 121.77 128.45 161.91 94.51 182.34 85.08 194.91 88.54 194.04 100.81 177.63 136.94 163.8 172.45 163.8 207.34 179.59 242.39 239.09 265.62 272.53 286.55 255.6 299.05 202.03 318.28 129.46 310.37"/><path id="outline_isi" data-name="outline isi" class="cls-3" d="M211.38,155c10,42.23,16.74,116.67,59.08,156.62C314.52,358.57,433,376,426.11,394.1c-10.73,24-126.29,64.12-217-23.21-75.3-70.07-49.76-184.23-12-220.74A8.49,8.49,0,0,1,211.38,155Z" transform="translate(-156.59 -107.97)"/><path id="outline_kulit" data-name="outline kulit" class="cls-3" d="M291.66,418.34s-77.38-36.15-40.15-130.2c22.51-56.88,65.11-84.35,85.59-92.9a10.32,10.32,0,0,1,13.53,13.54c-14.25,33.26-62.75,97.65-7.79,145.56" transform="translate(-156.59 -107.97)"/><circle id="eye_2" data-name="eye 2" class="cls-4" cx="179.83" cy="26.94" r="22.94"/><circle id="eye_1" data-name="eye 1" class="cls-4" cx="268.14" cy="109.37" r="22.94"/></svg>