<svg xmlns="http://www.w3.org/2000/svg" viewBox="0 0 894.01 361.76"><defs><style>.cls-1{fill:#fff;}.cls-2,.cls-4,.cls-5{fill:#f1c81e;}.cls-3{fill:none;stroke:#361f15;}.cls-3,.cls-4,.cls-5{stroke-miterlimit:10;}.cls-3,.cls-4{stroke-width:8px;}.cls-4{stroke:#361f14;}.cls-5{font-size:147.1px;stroke:#351e13;stroke-width:3px;font-family:GillSans-UltraBold, Gill Sans Ultra Bold;font-weight:700;letter-spacing:0.03em;}</style></defs><g id="Logo"><polygon id="fill_isi" data-name="fill isi" class="cls-1" points="96.31 182.33 74.33 125.21 57.57 44.75 42.24 39.82 19.72 73.18 1.84 132.32 8.67 187.49 36.62 251.34 96.31 298.27 129.46 307.22 102.41 276.9 89.84 246.31 86.49 206.92 96.31 182.33"/><polyline id="fill_kulit" data-name="fill kulit" class="cls-2" points="97.13 274.49 84.8 231.96 95.29 172.14 121.77 128.45 161.91 94.51 182.34 85.08 194.91 88.54 194.04 100.81 177.63 136.94 163.8 172.45 163.8 207.34 179.59 242.39 239.09 265.62 272.53 286.55 255.6 299.05 202.03 318.28 129.46 310.37"/><path id="outline_isi" data-name="outline isi" class="cls-3" d="M76,167.34C86.06,209.57,92.76,284,135.1,324c44.06,47,162.54,64.38,155.65,82.52-10.73,24-126.29,64.12-217-23.21C-1.53,313.2,24,199,61.78,162.52A8.5,8.5,0,0,1,76,167.34Z" transform="translate(-21.23 -120.35)"/><path id="outline_kulit" data-name="outline kulit" class="cls-3" d="M156.3,430.72s-77.38-36.16-40.15-130.21c22.51-56.87,65.11-84.34,85.59-92.89a10.32,10.32,0,0,1,13.53,13.54c-14.25,33.26-62.75,97.65-7.79,145.56" transform="translate(-21.23 -120.35)"/><circle id="eye_2" data-name="eye 2" class="cls-4" cx="179.83" cy="26.94" r="22.94"/><circle id="eye_1" data-name="eye 1" class="cls-4" cx="268.14" cy="109.37" r="22.94"/></g><g id="Title"><text class="cls-5" transform="translate(340.95 168.26)">LOKA</text><text class="cls-5" transform="translate(340.39 167.69)">LOKA</text><text class="cls-5" transform="translate(339.82 167.13)">LOKA</text><text class="cls-5" transform="translate(339.25 166.56)">LOKA</text><text class="cls-5" transform="translate(338.69 165.99)">LOKA</text><text class="cls-5" transform="translate(338.12 165.43)">LOKA</text><text class="cls-5" transform="translate(337.55 164.86)">LOKA</text><text class="cls-5" transform="translate(336.99 164.29)">LOKA</text><text class="cls-5" transform="translate(336.42 163.72)">LOKA</text><text class="cls-5" transform="translate(335.85 163.16)">LOKA</text><text class="cls-5" transform="translate(335.29 162.59)">LOKA</text><text class="cls-5" transform="translate(316.45 301.29)">CHIPS</text><text class="cls-5" transform="translate(315.88 300.72)">CHIPS</text><text class="cls-5" transform="translate(315.32 300.16)">CHIPS</text><text class="cls-5" transform="translate(314.75 299.59)">CHIPS</text><text class="cls-5" transform="translate(314.18 299.02)">CHIPS</text><text class="cls-5" transform="translate(313.62 298.45)">CHIPS</text><text class="cls-5" transform="translate(313.05 297.89)">CHIPS</text><text class="cls-5" transform="translate(312.48 297.32)">CHIPS</text><text class="cls-5" transform="translate(311.91 296.75)">CHIPS</text><text class="cls-5" transform="translate(311.35 296.19)">CHIPS</text><text class="cls-5" transform="translate(310.78 295.62)">CHIPS</text></g></svg>