<svg width="40" height="40" viewBox="0 0 40 40" fill="none" xmlns="http://www.w3.org/2000/svg">
<g clip-path="url(#clip0_64_6730)">
<path d="M20 3.3335C13.55 3.3335 8.33334 8.55016 8.33334 15.0002C8.33334 17.9002 9.16668 20.6168 10.6833 23.0668C12.2667 25.6335 14.35 27.8335 15.95 30.4002C16.7333 31.6502 17.3 32.8168 17.9 34.1668C18.3333 35.0835 18.6833 36.6668 20 36.6668C21.3167 36.6668 21.6667 35.0835 22.0833 34.1668C22.7 32.8168 23.25 31.6502 24.0333 30.4002C25.6333 27.8502 27.7167 25.6502 29.3 23.0668C30.8333 20.6168 31.6667 17.9002 31.6667 15.0002C31.6667 8.55016 26.45 3.3335 20 3.3335ZM20 19.5835C17.7 19.5835 15.8333 17.7168 15.8333 15.4168C15.8333 13.1168 17.7 11.2502 20 11.2502C22.3 11.2502 24.1667 13.1168 24.1667 15.4168C24.1667 17.7168 22.3 19.5835 20 19.5835Z" fill="#1E1E1E"/>
</g>
<defs>
<clipPath id="clip0_64_6730">
<rect width="40" height="40" fill="white"/>
</clipPath>
</defs>
</svg>
